<svg width="40" height="40" viewBox="0 0 40 40" fill="none" xmlns="http://www.w3.org/2000/svg">
<path d="M40 0H0V40H40V0Z" fill="#FFFCEA"/>
<path d="M15.3598 30.1598C24.7898 30.1598 29.9498 22.3398 29.9498 15.5698C29.9498 15.3498 29.9498 15.1298 29.9398 14.9098C30.9398 14.1898 31.8098 13.2798 32.4998 12.2498C31.5798 12.6598 30.5898 12.9298 29.5498 13.0598C30.6098 12.4298 31.4198 11.4198 31.8098 10.2198C30.8198 10.8098 29.7198 11.2298 28.5498 11.4598C27.6098 10.4598 26.2798 9.83984 24.8098 9.83984C21.9798 9.83984 19.6798 12.1398 19.6798 14.9698C19.6798 15.3698 19.7298 15.7598 19.8098 16.1398C15.5498 15.9298 11.7698 13.8798 9.23977 10.7798C8.79977 11.5398 8.54977 12.4198 8.54977 13.3598C8.54977 15.1398 9.45977 16.7098 10.8298 17.6298C9.98977 17.5998 9.19977 17.3698 8.50977 16.9898C8.50977 17.0098 8.50977 17.0298 8.50977 17.0598C8.50977 19.5398 10.2798 21.6198 12.6198 22.0898C12.1898 22.2098 11.7398 22.2698 11.2698 22.2698C10.9398 22.2698 10.6198 22.2398 10.3098 22.1798C10.9598 24.2198 12.8598 25.6998 15.0998 25.7398C13.3398 27.1198 11.1298 27.9398 8.72977 27.9398C8.31977 27.9398 7.90977 27.9198 7.50977 27.8698C9.76977 29.3098 12.4698 30.1598 15.3598 30.1598Z" fill="#544F40"/>
</svg>
